<?xml version="1.0" encoding="UTF-8" standalone="no"?>
<svg width="37px" height="36px" viewBox="0 0 37 36" version="1.1" xmlns="http://www.w3.org/2000/svg" xmlns:xlink="http://www.w3.org/1999/xlink">
    <!-- Generator: Sketch 3.7.2 (28276) - http://www.bohemiancoding.com/sketch -->
    <title>x-k-E</title>
    <desc>Created with Sketch.</desc>
    <defs></defs>
    <g id="Page-1" stroke="none" stroke-width="1" fill="none" fill-rule="evenodd">
        <g id="icon-facebook" fill="#000">
            <g id="Page-1">
                <path d="M18.6035156,0 C23.8066666,0 28.1894353,1.92185578 31.7519531,5.765625 C34.9863443,9.23439234 36.6035156,13.3124766 36.6035156,18 C36.6035156,23.203151 34.6816598,27.5859197 30.8378906,31.1484375 C27.3691233,34.3828287 23.2910391,36 18.6035156,36 C13.4003646,36 9.01759594,34.0781442 5.45507812,30.234375 C2.22068695,26.7656077 0.603515625,22.6875234 0.603515625,18 C0.603515625,12.796849 2.52537141,8.41408031 6.36914062,4.8515625 C9.83790797,1.61717133 13.9159922,0 18.6035156,0 L18.6035156,0 L18.6035156,0 Z M23.3847656,17.9296875 L23.8066406,13.9921875 L20.2207031,13.9921875 L20.2207031,11.671875 C20.2675784,11.0156217 20.5957001,10.6640627 21.2050781,10.6171875 L23.7363281,10.6171875 L23.7363281,6.8203125 L20.2910156,6.8203125 C17.6191273,6.8203125 16.095705,8.06248758 15.7207031,10.546875 C15.6738279,10.8750016 15.6503906,11.1796861 15.6503906,11.4609375 L15.6503906,13.9921875 L13.4003906,13.9921875 L13.4003906,17.9296875 L15.6503906,17.9296875 L15.6503906,29.0390625 L20.2207031,29.0390625 L20.2207031,17.9296875 L23.3847656,17.9296875 L23.3847656,17.9296875 Z" id="x-k-E"></path>
            </g>
        </g>
    </g>
</svg>