<?xml version="1.0" encoding="UTF-8" standalone="no"?>
<svg width="36px" height="36px" viewBox="0 0 36 36" version="1.1" xmlns="http://www.w3.org/2000/svg" xmlns:xlink="http://www.w3.org/1999/xlink">
    <!-- Generator: Sketch 3.7.2 (28276) - http://www.bohemiancoding.com/sketch -->
    <title>x-k-E</title>
    <desc>Created with Sketch.</desc>
    <defs></defs>
    <g id="Page-1" stroke="none" stroke-width="1" fill="none" fill-rule="evenodd">
        <g id="icon-instagram" fill="#000">
            <g id="Page-1">
                <path d="M25.453125,14.0625 L22.1484375,14.0625 L22.1484375,10.7578125 L25.03125,10.7578125 L25.453125,10.7578125 L25.453125,14.0625 L25.453125,14.0625 Z M17.9296875,14.8359375 C19.3828198,14.8359375 20.4374967,15.4921809 21.09375,16.8046875 C21.2812509,17.3203151 21.375,17.8124977 21.375,18.28125 C21.375,19.7812575 20.6953193,20.8359345 19.3359375,21.4453125 C18.8671852,21.6328134 18.3984398,21.7265625 17.9296875,21.7265625 C16.42968,21.7265625 15.375003,21.0468818 14.765625,19.6875 C14.5781241,19.2187477 14.484375,18.7500023 14.484375,18.28125 C14.484375,16.7812425 15.1640557,15.7265655 16.5234375,15.1171875 C16.9921898,14.9296866 17.4609352,14.8359375 17.9296875,14.8359375 L17.9296875,14.8359375 L17.9296875,14.8359375 Z M18,0 C23.203151,0 27.5859197,1.92185578 31.1484375,5.765625 C34.3828287,9.23439234 36,13.3124766 36,18 C36,23.203151 34.0781442,27.5859197 30.234375,31.1484375 C26.7656077,34.3828287 22.6875234,36 18,36 C12.796849,36 8.41408031,34.0781442 4.8515625,30.234375 C1.61717133,26.7656077 0,22.6875234 0,18 C0,12.796849 1.92185578,8.41408031 5.765625,4.8515625 C9.23439234,1.61717133 13.3124766,0 18,0 L18,0 L18,0 Z M27.703125,24.2578125 L27.703125,12.3046875 C27.703125,10.7109295 26.9765698,9.56250352 25.5234375,8.859375 C25.0078099,8.62499883 24.4687528,8.5078125 23.90625,8.5078125 L11.8828125,8.5078125 C10.2421793,8.5078125 9.09375328,9.257805 8.4375,10.7578125 C8.24999906,11.2734401 8.15625,11.7890599 8.15625,12.3046875 L8.15625,24.2578125 C8.15625,25.9453209 8.88280523,27.093747 10.3359375,27.703125 C10.8515651,27.9375012 11.3671849,28.0546875 11.8828125,28.0546875 L23.90625,28.0546875 C25.500008,28.0546875 26.648434,27.3281323 27.3515625,25.875 C27.5859387,25.3593724 27.703125,24.8203153 27.703125,24.2578125 L27.703125,24.2578125 L27.703125,24.2578125 Z M23.2734375,18.28125 C23.2734375,17.5312463 23.1328139,16.8515655 22.8515625,16.2421875 L25.8046875,16.2421875 L25.8046875,24.2578125 C25.8046875,25.1953172 25.3593795,25.8046861 24.46875,26.0859375 C24.2812491,26.1328127 24.0937509,26.15625 23.90625,26.15625 L11.8828125,26.15625 C10.8984326,26.15625 10.3125009,25.6640674 10.125,24.6796875 C10.0781248,24.5390618 10.0546875,24.3984382 10.0546875,24.2578125 L10.0546875,16.2421875 L12.9375,16.2421875 C12.7031238,16.8046903 12.5859375,17.484371 12.5859375,18.28125 C12.5859375,20.3906355 13.4999909,21.9609323 15.328125,22.9921875 C16.1718792,23.4140646 17.039058,23.625 17.9296875,23.625 C20.039073,23.625 21.6093698,22.7109466 22.640625,20.8828125 C23.0625021,20.0390583 23.2734375,19.1718795 23.2734375,18.28125 L23.2734375,18.28125 L23.2734375,18.28125 Z" id="x-k-E"></path>
            </g>
        </g>
    </g>
</svg>