<?xml version="1.0" encoding="UTF-8" standalone="no"?>
<svg width="37px" height="36px" viewBox="0 0 37 36" version="1.1" xmlns="http://www.w3.org/2000/svg" xmlns:xlink="http://www.w3.org/1999/xlink">
    <!-- Generator: Sketch 3.7.2 (28276) - http://www.bohemiancoding.com/sketch -->
    <title>x-k-E</title>
    <desc>Created with Sketch.</desc>
    <defs></defs>
    <g id="Page-1" stroke="none" stroke-width="1" fill="none" fill-rule="evenodd">
        <g id="icon-twitter" fill="#000">
            <g id="Page-1">
                <path d="M18.2070312,0 C23.4101823,0 27.7929509,1.92185578 31.3554688,5.765625 C34.5898599,9.23439234 36.2070312,13.3124766 36.2070312,18 C36.2070312,23.203151 34.2851755,27.5859197 30.4414062,31.1484375 C26.9726389,34.3828287 22.8945547,36 18.2070312,36 C13.0038802,36 8.62111156,34.0781442 5.05859375,30.234375 C1.82420258,26.7656077 0.20703125,22.6875234 0.20703125,18 C0.20703125,12.796849 2.12888703,8.41408031 5.97265625,4.8515625 C9.44142359,1.61717133 13.5195078,0 18.2070312,0 L18.2070312,0 L18.2070312,0 Z M27.2773438,14.34375 C28.121098,13.734372 28.8710905,12.9609422 29.5273438,12.0234375 C28.7304648,12.3515641 27.8632859,12.5859368 26.9257812,12.7265625 C27.8632859,12.1171845 28.5195294,11.2734429 28.8945312,10.1953125 C27.9101513,10.7578153 26.9492234,11.1328116 26.0117188,11.3203125 C25.1210893,10.3828078 24.0195378,9.9140625 22.7070312,9.9140625 C20.7851466,9.9140625 19.4257852,10.7578041 18.6289062,12.4453125 C18.3476548,13.1015658 18.2070312,13.7578092 18.2070312,14.4140625 C18.2070312,14.6953139 18.2539058,15.0468729 18.3476562,15.46875 C14.503887,15.2343738 11.3867307,13.664077 8.99609375,10.7578125 C8.57421664,11.5078162 8.36328125,12.2578087 8.36328125,13.0078125 C8.41015648,14.5546952 9.08983719,15.8203076 10.4023438,16.8046875 C9.65234,16.8046875 8.94922203,16.6171894 8.29296875,16.2421875 C8.29296875,18.0703216 9.11327305,19.429683 10.7539062,20.3203125 C11.1757834,20.5078134 11.5742169,20.648437 11.9492188,20.7421875 C11.4804664,20.835938 11.0820329,20.8828125 10.7539062,20.8828125 C10.3789044,20.8828125 10.0976572,20.8593752 9.91015625,20.8125 C10.4257838,22.4531332 11.5507726,23.4609356 13.2851562,23.8359375 C13.5664077,23.929688 13.8476548,23.9765625 14.1289062,23.9765625 C12.4413978,25.2421938 10.5664166,25.875 8.50390625,25.875 C8.03515391,25.875 7.68359492,25.8515627 7.44921875,25.8046875 C9.65235477,27.1640693 11.9726441,27.84375 14.4101562,27.84375 C19.0976797,27.84375 22.6601441,25.9453315 25.0976562,22.1484375 C26.5507885,19.8984262 27.2773438,17.5078252 27.2773438,14.9765625 L27.2773438,14.34375 L27.2773438,14.34375 Z" id="x-k-E"></path>
            </g>
        </g>
    </g>
</svg>