<?xml version="1.0" encoding="utf-8"?>
<!-- Generator: Adobe Illustrator 16.0.0, SVG Export Plug-In . SVG Version: 6.00 Build 0)  -->
<!DOCTYPE svg PUBLIC "-//W3C//DTD SVG 1.1//EN" "http://www.w3.org/Graphics/SVG/1.1/DTD/svg11.dtd">
<svg version="1.1" id="Layer_1" xmlns="http://www.w3.org/2000/svg" xmlns:xlink="http://www.w3.org/1999/xlink" x="0px" y="0px"
	 width="300px" height="65px" viewBox="-25 -2.5 300 65" enable-background="new -25 -2.5 300 65" xml:space="preserve">
<g id="Gold_Gradient_1_">
	<path id="A_1_" fill="#fff" d="M163.203,33.5h-1.982l-1.652-9.503h-4.711l-1.651,9.503h-0.413L157.997,4L163.203,33.5z
		 M159.484,23.584l-2.231-13.056l-2.313,13.056H159.484z"/>
	<path id="B_3_" fill="#fff" d="M150.893,24.576c0,2.479-0.992,4.545-3.059,6.279c-2.066,1.733-4.545,2.645-7.438,2.645h-5.123
		V6.148h5.123c1.733,0,3.223,0.496,4.545,1.487c1.322,0.992,1.898,2.148,1.898,3.471c0,1.074-0.413,2.066-1.238,2.892
		c-0.826,0.827-1.899,1.405-3.224,1.735c2.479,0.413,4.462,1.487,6.114,3.14C150.064,20.444,150.893,22.345,150.893,24.576z
		 M144.857,11.024c0-1.157-0.494-2.231-1.486-3.14c-0.991-0.909-1.981-1.322-3.059-1.322h-3.223v8.924h3.223
		c1.238,0,2.313-0.413,3.142-1.322C144.445,13.337,144.857,12.263,144.857,11.024z M148.908,24.576c0-2.314-0.827-4.38-2.479-6.033
		c-1.652-1.653-3.721-2.479-6.033-2.479h-3.224v17.022h3.224c2.396,0,4.381-0.826,6.033-2.479
		C148.081,28.872,148.908,26.89,148.908,24.576z"/>
	<path id="B_2_" fill="#fff" d="M132.381,24.576c0,2.479-0.989,4.545-3.057,6.279c-2.067,1.733-4.545,2.645-7.438,2.645h-5.124
		V6.148h5.124c1.735,0,3.224,0.496,4.546,1.487c1.32,0.992,1.898,2.148,1.898,3.471c0,1.074-0.413,2.066-1.239,2.892
		c-0.825,0.827-1.899,1.405-3.223,1.735c2.479,0.413,4.462,1.487,6.114,3.14C131.557,20.444,132.381,22.345,132.381,24.576z
		 M126.351,11.024c0-1.157-0.496-2.231-1.487-3.14c-0.992-0.909-1.983-1.322-3.059-1.322h-3.223v8.924h3.223
		c1.24,0,2.314-0.413,3.141-1.322C125.854,13.337,126.351,12.263,126.351,11.024z M130.397,24.576c0-2.314-0.826-4.38-2.479-6.033
		c-1.651-1.653-3.636-2.479-6.031-2.479h-3.224v17.022h3.224c2.396,0,4.379-0.826,6.031-2.479
		C129.571,28.872,130.397,26.89,130.397,24.576z"/>
	<path id="E_3_" fill="#fff" d="M104.286,33.087h5.784V15.899h-5.784v-0.413h5.784V6.562h-4.958V6.149h6.858V33.5h-7.767v-0.413
		H104.286z"/>
	<path id="E_2_" fill="#fff" d="M99.907,33.5h-7.768V6.148h6.858v0.413H94.04v9.007h5.785v0.414H94.04v17.187h5.785V33.5H99.907z
		"/>
	<path id="Z_1_" fill="#fff" d="M87.181,33.5H77.1l7.933-26.938h-6.694V6.149h8.842l-8.015,26.938h8.015V33.5z"/>
</g>
<g>
	<path fill="#fff" d="M-18.107,52.978h-3.1l-0.756,2.571l0.982,0.379v0.152h-2.27v-0.152l0.983-0.379l2.951-10.287h0.229l3.177,10.438
		l0.908,0.229v0.151h-3.177v-0.152l0.907-0.228L-18.107,52.978z M-21.133,52.69h2.936l-1.513-5.008L-21.133,52.69z"/>
	<path fill="#fff" d="M-10.165,46.774c0,0.172-0.028,0.325-0.084,0.461c-0.055,0.137-0.118,0.255-0.188,0.354
		c-0.081,0.114-0.166,0.22-0.257,0.322l-1.135-0.456c0.091-0.1,0.176-0.206,0.257-0.319c0.069-0.098,0.132-0.218,0.188-0.354
		c0.055-0.136,0.084-0.289,0.084-0.461c0-0.262-0.068-0.467-0.205-0.611c-0.135-0.146-0.32-0.222-0.552-0.222
		c-0.111,0-0.216,0.026-0.318,0.083c-0.101,0.055-0.188,0.149-0.265,0.288c-0.075,0.135-0.135,0.321-0.182,0.55
		c-0.046,0.232-0.068,0.532-0.068,0.893v1.815h2.119v0.303h-2.119v6.279l0.909,0.229v0.153h-3.026v-0.152L-14.1,55.7v-6.279h-0.907
		v-0.303h0.907v-1.815c0-0.605,0.19-1.095,0.568-1.475c0.379-0.379,0.87-0.566,1.476-0.566c0.283,0,0.54,0.042,0.771,0.127
		c0.232,0.086,0.432,0.199,0.599,0.341c0.167,0.14,0.295,0.302,0.386,0.482C-10.209,46.397-10.165,46.584-10.165,46.774z"/>
	<path fill="#fff" d="M-5.172,46.774c0,0.172-0.028,0.325-0.083,0.461c-0.055,0.137-0.118,0.255-0.188,0.354
		c-0.081,0.114-0.166,0.22-0.256,0.322l-1.136-0.456c0.092-0.1,0.177-0.206,0.257-0.319c0.069-0.098,0.133-0.218,0.189-0.354
		c0.055-0.136,0.083-0.289,0.083-0.461c0-0.262-0.068-0.467-0.206-0.611c-0.134-0.146-0.32-0.222-0.551-0.222
		c-0.111,0-0.216,0.026-0.319,0.083c-0.1,0.055-0.188,0.149-0.264,0.288c-0.076,0.135-0.136,0.321-0.182,0.55
		c-0.045,0.232-0.067,0.532-0.067,0.893v1.815h2.118v0.303h-2.118v6.279l0.907,0.229v0.153h-3.025v-0.152l0.908-0.228v-6.279h-0.908
		v-0.303h0.908v-1.815c0-0.605,0.188-1.095,0.568-1.475c0.378-0.379,0.87-0.566,1.475-0.566c0.282,0,0.54,0.042,0.772,0.127
		c0.232,0.086,0.432,0.199,0.598,0.341c0.166,0.14,0.295,0.302,0.387,0.482C-5.216,46.397-5.172,46.584-5.172,46.774z"/>
	<path fill="#fff" d="M-2.372,48.893c0.373,0,0.733,0.082,1.082,0.247c0.349,0.168,0.656,0.411,0.924,0.729c0.268,0.315,0.479,0.706,0.635,1.164
		c0.156,0.459,0.235,0.982,0.235,1.565c0,0.586-0.079,1.109-0.235,1.567s-0.368,0.848-0.635,1.163
		c-0.268,0.32-0.575,0.561-0.924,0.729c-0.347,0.166-0.708,0.247-1.082,0.247c-0.384,0-0.748-0.081-1.09-0.247
		c-0.344-0.169-0.648-0.409-0.915-0.729c-0.267-0.315-0.479-0.705-0.635-1.163c-0.156-0.458-0.235-0.981-0.235-1.567
		c0-0.583,0.078-1.106,0.235-1.565c0.156-0.458,0.368-0.849,0.635-1.164c0.268-0.318,0.573-0.562,0.915-0.729
		C-3.118,48.976-2.755,48.893-2.372,48.893z M-2.372,49.118c-0.172,0-0.347,0.06-0.522,0.176c-0.177,0.116-0.338,0.309-0.483,0.576
		c-0.147,0.267-0.268,0.622-0.364,1.066c-0.095,0.443-0.144,0.998-0.144,1.663c0,0.666,0.049,1.222,0.144,1.663
		c0.096,0.447,0.216,0.8,0.364,1.067c0.146,0.269,0.306,0.46,0.483,0.576c0.177,0.114,0.351,0.174,0.522,0.174
		c0.17,0,0.345-0.06,0.521-0.177c0.176-0.116,0.338-0.308,0.483-0.575c0.147-0.268,0.269-0.62,0.364-1.067
		c0.096-0.442,0.144-0.998,0.144-1.663c0-0.666-0.048-1.22-0.144-1.663c-0.097-0.444-0.216-0.8-0.364-1.066
		c-0.145-0.27-0.307-0.46-0.483-0.576C-2.027,49.175-2.2,49.118-2.372,49.118z"/>
	<path fill="#fff" d="M3.832,55.7l0.907,0.229v0.151H1.712v-0.152L2.621,55.7v-6.203L1.712,49.27v-0.151h2.119v1.817
		c0.131-0.375,0.286-0.712,0.469-1.017c0.162-0.26,0.358-0.498,0.589-0.709c0.231-0.212,0.51-0.317,0.833-0.317
		c0.111,0,0.217,0.006,0.318,0.022s0.191,0.03,0.272,0.054c0.091,0.029,0.172,0.054,0.242,0.074l-0.455,1.136
		c-0.061-0.031-0.126-0.066-0.197-0.105c-0.062-0.03-0.133-0.061-0.219-0.084s-0.175-0.037-0.265-0.037
		c-0.262,0-0.495,0.072-0.696,0.213c-0.203,0.142-0.368,0.296-0.499,0.469c-0.162,0.201-0.293,0.428-0.393,0.68V55.7z"/>
	<path fill="#fff" d="M12.682,55.7l0.909,0.229v0.151h-2.117v-0.909c-0.113,0.211-0.252,0.403-0.425,0.575c-0.142,0.142-0.321,0.271-0.538,0.387
		c-0.217,0.114-0.477,0.173-0.779,0.173c-0.323,0-0.643-0.081-0.961-0.247c-0.317-0.169-0.6-0.409-0.848-0.729
		c-0.248-0.315-0.448-0.705-0.604-1.163c-0.156-0.458-0.236-0.981-0.236-1.567c0-0.583,0.078-1.106,0.236-1.565
		c0.156-0.458,0.365-0.849,0.627-1.164c0.262-0.318,0.559-0.562,0.893-0.729c0.333-0.165,0.681-0.247,1.044-0.247
		c0.283,0,0.524,0.041,0.726,0.121c0.202,0.078,0.368,0.166,0.5,0.257c0.15,0.111,0.272,0.235,0.364,0.38v-3.784l-0.909-0.229
		v-0.148h2.118V55.7z M10.111,49.195c-0.212,0-0.417,0.057-0.613,0.174c-0.196,0.115-0.373,0.306-0.529,0.567
		C8.811,50.2,8.686,50.548,8.59,50.979c-0.095,0.434-0.143,0.974-0.143,1.619c0,0.646,0.048,1.185,0.143,1.619
		c0.096,0.436,0.218,0.783,0.365,1.052c0.145,0.268,0.307,0.456,0.483,0.565c0.176,0.115,0.351,0.167,0.521,0.167
		c0.242,0,0.457-0.069,0.643-0.21c0.186-0.141,0.344-0.297,0.477-0.47c0.151-0.191,0.281-0.418,0.395-0.681v-4.54
		c-0.102-0.169-0.218-0.321-0.35-0.451c-0.112-0.113-0.25-0.215-0.417-0.312C10.541,49.245,10.342,49.195,10.111,49.195z"/>
	<path fill="#fff" d="M17.447,49.118c-0.302,0-0.554,0.104-0.757,0.312c-0.202,0.205-0.302,0.481-0.302,0.823c0,0.081,0.003,0.152,0.008,0.213
		c0.004,0.062,0.012,0.117,0.023,0.168c0.01,0.05,0.024,0.099,0.045,0.151l-1.21,0.303c-0.02-0.031-0.035-0.073-0.045-0.123
		c-0.011-0.049-0.019-0.105-0.024-0.163c-0.004-0.062-0.007-0.144-0.007-0.246c0-0.209,0.05-0.416,0.151-0.612
		c0.1-0.195,0.25-0.371,0.446-0.529c0.198-0.156,0.434-0.283,0.711-0.377c0.278-0.096,0.598-0.145,0.961-0.145
		c0.727,0,1.3,0.209,1.719,0.622c0.418,0.415,0.628,0.964,0.628,1.646V55.7l0.907,0.229v0.151h-2.117v-0.909
		c-0.112,0.211-0.252,0.403-0.424,0.575c-0.142,0.142-0.321,0.271-0.539,0.387c-0.216,0.114-0.476,0.173-0.779,0.173
		c-0.726,0-1.273-0.17-1.642-0.514c-0.367-0.342-0.551-0.802-0.551-1.377c0-0.282,0.078-0.565,0.234-0.848
		c0.156-0.283,0.393-0.534,0.711-0.757c0.318-0.22,0.724-0.401,1.217-0.535c0.494-0.136,1.084-0.205,1.769-0.205v-0.909
		c0-0.756-0.113-1.284-0.339-1.586C18.016,49.271,17.75,49.118,17.447,49.118z M18.584,52.373c-0.878,0-1.527,0.193-1.945,0.582
		c-0.418,0.387-0.627,0.926-0.627,1.61c0,0.455,0.111,0.808,0.333,1.061c0.222,0.25,0.463,0.376,0.727,0.376
		c0.241,0,0.456-0.071,0.643-0.212c0.186-0.141,0.345-0.297,0.477-0.469c0.15-0.191,0.281-0.419,0.394-0.68V52.373z"/>
	<path fill="#fff" d="M24.937,48.893c0.364,0,0.711,0.082,1.044,0.247c0.333,0.168,0.631,0.411,0.893,0.729c0.262,0.315,0.471,0.706,0.628,1.164
		c0.157,0.459,0.235,0.982,0.235,1.565c0,0.586-0.077,1.109-0.235,1.567c-0.157,0.458-0.358,0.848-0.605,1.163
		c-0.247,0.32-0.529,0.561-0.847,0.729c-0.318,0.166-0.638,0.247-0.961,0.247c-0.302,0-0.566-0.057-0.787-0.173
		c-0.222-0.116-0.403-0.245-0.544-0.387c-0.173-0.172-0.308-0.364-0.409-0.575v0.909h-2.118v-0.152l0.908-0.228v-9.834l-0.908-0.229
		v-0.148h2.118v4.161c0.091-0.142,0.212-0.269,0.363-0.379c0.131-0.091,0.296-0.177,0.491-0.257
		C24.4,48.934,24.645,48.893,24.937,48.893z M24.709,49.195c-0.232,0-0.432,0.048-0.605,0.144c-0.171,0.095-0.312,0.198-0.423,0.312
		c-0.131,0.129-0.242,0.281-0.333,0.451v4.54c0.112,0.263,0.243,0.488,0.394,0.68c0.13,0.172,0.287,0.328,0.468,0.469
		c0.181,0.141,0.398,0.212,0.651,0.212c0.172,0,0.345-0.054,0.522-0.168c0.176-0.109,0.337-0.298,0.484-0.565
		c0.146-0.268,0.267-0.617,0.363-1.052c0.096-0.434,0.144-0.973,0.144-1.619c0-0.646-0.048-1.185-0.144-1.619
		c-0.098-0.431-0.223-0.781-0.378-1.043c-0.156-0.263-0.333-0.452-0.529-0.567C25.125,49.252,24.922,49.195,24.709,49.195z"/>
	<path fill="#fff" d="M29.779,55.7v-9.834l-0.907-0.228v-0.149h2.117V55.7l0.909,0.229v0.151h-3.026v-0.152L29.779,55.7z"/>
	<path fill="#fff" d="M34.319,52.599c0,0.646,0.047,1.185,0.144,1.619c0.095,0.436,0.221,0.783,0.378,1.052c0.156,0.268,0.332,0.456,0.529,0.565
		c0.197,0.115,0.402,0.167,0.613,0.167c0.262,0,0.51-0.048,0.741-0.149c0.232-0.1,0.439-0.235,0.621-0.41
		c0.182-0.17,0.33-0.376,0.446-0.619c0.117-0.239,0.196-0.504,0.235-0.786h0.228c-0.04,0.322-0.129,0.624-0.265,0.9
		c-0.135,0.277-0.31,0.518-0.522,0.718c-0.211,0.201-0.457,0.362-0.733,0.479c-0.277,0.114-0.577,0.173-0.9,0.173
		c-0.384,0-0.747-0.082-1.089-0.249c-0.344-0.166-0.649-0.409-0.916-0.729c-0.268-0.315-0.479-0.705-0.635-1.163
		s-0.234-0.98-0.234-1.567c0-0.604,0.074-1.138,0.228-1.603c0.151-0.464,0.35-0.85,0.597-1.157c0.246-0.309,0.536-0.543,0.861-0.705
		c0.329-0.16,0.675-0.24,1.037-0.24s0.708,0.08,1.037,0.24c0.327,0.162,0.614,0.396,0.861,0.705
		c0.247,0.308,0.447,0.693,0.598,1.157c0.151,0.465,0.227,0.998,0.227,1.603L34.319,52.599L34.319,52.599z M35.68,49.118
		c-0.151,0-0.302,0.051-0.454,0.146c-0.151,0.095-0.293,0.263-0.424,0.505c-0.13,0.24-0.239,0.567-0.325,0.976
		c-0.086,0.409-0.14,0.929-0.158,1.551h2.723c-0.021-0.626-0.074-1.142-0.158-1.551c-0.085-0.408-0.195-0.733-0.327-0.976
		c-0.13-0.242-0.271-0.41-0.423-0.505C35.982,49.169,35.831,49.118,35.68,49.118z"/>
	<path fill="#fff" d="M40.445,54.565c0.231,0,0.429,0.089,0.59,0.265c0.16,0.178,0.241,0.416,0.241,0.719c0,0.445-0.068,0.803-0.205,1.077
		c-0.135,0.27-0.284,0.488-0.446,0.648c-0.183,0.184-0.394,0.32-0.636,0.41l-0.151-0.244c0.172-0.077,0.324-0.175,0.454-0.285
		c0.111-0.091,0.215-0.207,0.311-0.35c0.095-0.142,0.144-0.307,0.144-0.498c0-0.039-0.005-0.073-0.016-0.101
		c-0.01-0.023-0.021-0.046-0.03-0.066l-0.027-0.061c-0.021,0.021-0.05,0.033-0.091,0.045c-0.08,0.021-0.151,0.03-0.211,0.03
		c-0.233,0-0.417-0.07-0.553-0.205c-0.136-0.136-0.204-0.321-0.204-0.552c0-0.231,0.08-0.43,0.242-0.59
		C40.017,54.646,40.212,54.565,40.445,54.565z"/>
	<path fill="#fff" d="M48.161,55.7l0.907,0.229v0.151h-3.025v-0.152L46.95,55.7v-6.203l-0.907-0.228v-0.151h2.118v1.817
		c0.13-0.375,0.287-0.712,0.47-1.017c0.161-0.26,0.357-0.498,0.588-0.709c0.232-0.212,0.51-0.317,0.834-0.317
		c0.111,0,0.217,0.006,0.317,0.022c0.101,0.017,0.192,0.03,0.273,0.054c0.09,0.029,0.172,0.054,0.242,0.074l-0.455,1.136
		c-0.06-0.031-0.125-0.066-0.197-0.105c-0.06-0.03-0.133-0.062-0.219-0.084c-0.086-0.023-0.175-0.037-0.265-0.037
		c-0.263,0-0.494,0.072-0.696,0.213c-0.202,0.142-0.369,0.296-0.499,0.469c-0.162,0.201-0.292,0.428-0.393,0.68L48.161,55.7
		L48.161,55.7z"/>
	<path fill="#fff" d="M52.85,52.599c0,0.646,0.049,1.185,0.145,1.619c0.095,0.436,0.221,0.783,0.377,1.052c0.157,0.268,0.334,0.456,0.531,0.565
		c0.197,0.115,0.402,0.167,0.612,0.167c0.263,0,0.51-0.048,0.742-0.149c0.231-0.1,0.438-0.235,0.621-0.41
		c0.182-0.17,0.331-0.376,0.447-0.619c0.116-0.239,0.194-0.504,0.234-0.786h0.228c-0.041,0.322-0.129,0.624-0.266,0.9
		c-0.135,0.277-0.309,0.518-0.522,0.718c-0.211,0.201-0.456,0.362-0.732,0.479c-0.278,0.114-0.578,0.173-0.901,0.173
		c-0.384,0-0.747-0.082-1.09-0.249c-0.343-0.166-0.647-0.409-0.915-0.729c-0.268-0.315-0.479-0.705-0.635-1.163
		c-0.155-0.458-0.235-0.98-0.235-1.567c0-0.604,0.076-1.138,0.229-1.603c0.151-0.464,0.35-0.85,0.597-1.157
		c0.248-0.309,0.535-0.543,0.862-0.705c0.328-0.16,0.674-0.24,1.035-0.24c0.364,0,0.709,0.08,1.037,0.24
		c0.328,0.162,0.616,0.396,0.862,0.705c0.247,0.308,0.447,0.693,0.598,1.157c0.151,0.465,0.227,0.998,0.227,1.603L52.85,52.599
		L52.85,52.599z M54.212,49.118c-0.151,0-0.301,0.051-0.453,0.146c-0.152,0.095-0.293,0.263-0.424,0.505
		c-0.131,0.24-0.24,0.567-0.325,0.976c-0.087,0.409-0.14,0.929-0.16,1.551h2.725c-0.021-0.626-0.074-1.142-0.159-1.551
		c-0.084-0.408-0.194-0.733-0.325-0.976c-0.131-0.242-0.273-0.41-0.424-0.505C54.515,49.169,54.364,49.118,54.212,49.118z"/>
	<path fill="#fff" d="M58.902,55.7v-9.834l-0.907-0.228v-0.149h2.118V55.7l0.908,0.229v0.151h-3.026v-0.152L58.902,55.7z"/>
	<path fill="#fff" d="M62.836,55.7v-6.203l-0.907-0.227v-0.152h2.118V55.7l0.908,0.229v0.151h-3.026v-0.152L62.836,55.7z M64.124,47.379
		c0,0.19-0.079,0.366-0.236,0.522c-0.156,0.157-0.331,0.234-0.521,0.234c-0.192,0-0.366-0.077-0.521-0.234
		c-0.156-0.156-0.235-0.332-0.235-0.522c0-0.192,0.078-0.366,0.235-0.522c0.156-0.157,0.329-0.233,0.521-0.233
		c0.19,0,0.365,0.076,0.521,0.233S64.124,47.188,64.124,47.379z"/>
	<path fill="#fff" d="M68.737,49.118c-0.302,0-0.554,0.104-0.756,0.312c-0.203,0.205-0.304,0.481-0.304,0.823c0,0.081,0.003,0.152,0.008,0.213
		c0.005,0.062,0.012,0.117,0.023,0.168c0.011,0.05,0.025,0.099,0.046,0.151l-1.21,0.303c-0.021-0.031-0.036-0.073-0.046-0.123
		c-0.01-0.049-0.018-0.105-0.023-0.163c-0.004-0.062-0.007-0.144-0.007-0.246c0-0.209,0.051-0.416,0.151-0.612
		c0.102-0.195,0.25-0.371,0.448-0.529c0.197-0.156,0.433-0.283,0.71-0.377c0.277-0.096,0.598-0.145,0.96-0.145
		c0.727,0,1.299,0.209,1.718,0.622c0.419,0.415,0.628,0.964,0.628,1.646V55.7l0.908,0.229v0.151h-2.118v-0.909
		c-0.112,0.211-0.252,0.403-0.423,0.575c-0.142,0.142-0.321,0.271-0.539,0.387c-0.216,0.114-0.477,0.173-0.779,0.173
		c-0.726,0-1.273-0.17-1.642-0.514c-0.367-0.342-0.551-0.802-0.551-1.377c0-0.282,0.077-0.565,0.234-0.848
		c0.156-0.283,0.393-0.534,0.71-0.757c0.319-0.22,0.724-0.401,1.217-0.535c0.494-0.136,1.084-0.205,1.77-0.205v-0.909
		c0-0.756-0.114-1.284-0.339-1.586C69.305,49.271,69.039,49.118,68.737,49.118z M69.873,52.373c-0.877,0-1.526,0.193-1.944,0.582
		c-0.418,0.387-0.627,0.926-0.627,1.61c0,0.455,0.111,0.808,0.332,1.061c0.221,0.25,0.464,0.376,0.727,0.376
		c0.242,0,0.457-0.071,0.643-0.212c0.185-0.141,0.344-0.297,0.476-0.469c0.152-0.191,0.282-0.419,0.394-0.68V52.373z"/>
	<path fill="#fff" d="M76.227,48.893c0.364,0,0.71,0.082,1.043,0.247c0.333,0.168,0.63,0.411,0.893,0.729c0.262,0.315,0.471,0.706,0.628,1.164
		c0.156,0.459,0.235,0.982,0.235,1.565c0,0.586-0.079,1.109-0.235,1.567c-0.157,0.458-0.358,0.848-0.605,1.163
		c-0.248,0.32-0.531,0.561-0.847,0.729c-0.318,0.166-0.637,0.247-0.961,0.247c-0.303,0-0.566-0.057-0.787-0.173
		c-0.223-0.116-0.403-0.245-0.545-0.387c-0.171-0.172-0.308-0.364-0.407-0.575v0.909h-2.119v-0.152l0.909-0.228v-9.834l-0.909-0.229
		v-0.148h2.119v4.161c0.09-0.142,0.211-0.269,0.362-0.379c0.131-0.091,0.296-0.177,0.492-0.257
		C75.69,48.934,75.934,48.893,76.227,48.893z M75.999,49.195c-0.232,0-0.433,0.048-0.604,0.144
		c-0.172,0.095-0.313,0.198-0.424,0.312c-0.131,0.129-0.242,0.281-0.333,0.451v4.54c0.112,0.263,0.243,0.488,0.394,0.68
		c0.13,0.172,0.287,0.328,0.469,0.469c0.181,0.141,0.398,0.212,0.65,0.212c0.172,0,0.346-0.054,0.521-0.168
		c0.177-0.109,0.339-0.298,0.484-0.565c0.146-0.268,0.268-0.617,0.364-1.052c0.095-0.434,0.143-0.973,0.143-1.619
		c0-0.646-0.048-1.185-0.143-1.619c-0.097-0.431-0.224-0.781-0.378-1.043c-0.156-0.263-0.333-0.452-0.53-0.567
		C76.415,49.252,76.211,49.195,75.999,49.195z"/>
	<path fill="#fff" d="M81.069,55.7v-9.834l-0.909-0.228v-0.149h2.119V55.7l0.907,0.229v0.151h-3.026v-0.152L81.069,55.7z"/>
	<path fill="#fff" d="M85.608,52.599c0,0.646,0.047,1.185,0.143,1.619c0.096,0.436,0.222,0.783,0.377,1.052c0.156,0.268,0.333,0.456,0.531,0.565
		c0.197,0.115,0.402,0.167,0.613,0.167c0.262,0,0.509-0.048,0.74-0.149c0.232-0.1,0.439-0.235,0.621-0.41
		c0.182-0.17,0.331-0.376,0.447-0.619c0.116-0.239,0.195-0.504,0.235-0.786h0.227c-0.04,0.322-0.128,0.624-0.265,0.9
		c-0.135,0.277-0.309,0.518-0.521,0.718c-0.212,0.201-0.456,0.362-0.733,0.479c-0.277,0.114-0.578,0.173-0.901,0.173
		c-0.384,0-0.747-0.082-1.09-0.249c-0.343-0.166-0.647-0.409-0.914-0.729c-0.269-0.315-0.479-0.705-0.636-1.163
		c-0.155-0.458-0.233-0.98-0.233-1.567c0-0.604,0.074-1.138,0.227-1.603c0.152-0.464,0.35-0.85,0.597-1.157
		c0.248-0.309,0.536-0.543,0.862-0.705c0.329-0.16,0.674-0.24,1.037-0.24s0.708,0.08,1.036,0.24
		c0.328,0.162,0.614,0.396,0.862,0.705c0.246,0.308,0.446,0.693,0.597,1.157c0.151,0.465,0.229,0.998,0.229,1.603L85.608,52.599
		L85.608,52.599z M86.969,49.118c-0.151,0-0.302,0.051-0.454,0.146c-0.151,0.095-0.293,0.263-0.424,0.505
		c-0.13,0.24-0.24,0.567-0.326,0.976c-0.086,0.409-0.14,0.929-0.158,1.551h2.723c-0.021-0.626-0.074-1.142-0.159-1.551
		c-0.084-0.408-0.194-0.733-0.325-0.976c-0.13-0.242-0.271-0.41-0.423-0.505C87.272,49.169,87.12,49.118,86.969,49.118z"/>
	<path fill="#fff" d="M98.088,56.002c0.606,0,1.097-0.187,1.476-0.565c0.379-0.379,0.568-0.871,0.568-1.477c0-0.574-0.146-1.02-0.438-1.339
		c-0.292-0.318-0.651-0.477-1.074-0.477c-0.252,0-0.46,0.032-0.622,0.092c-0.162,0.06-0.292,0.131-0.394,0.213
		c-0.111,0.089-0.203,0.19-0.272,0.302l-0.151-0.077c0.051-0.281,0.131-0.532,0.242-0.755c0.101-0.192,0.245-0.366,0.432-0.522
		s0.441-0.235,0.763-0.235c0.212,0,0.409,0.023,0.59,0.069c0.182,0.045,0.365,0.1,0.553,0.159c0.187,0.061,0.375,0.116,0.568,0.159
		c0.191,0.046,0.402,0.069,0.635,0.069c0.151,0,0.283-0.03,0.394-0.091c0.109-0.062,0.206-0.131,0.287-0.211
		c0.091-0.092,0.167-0.192,0.228-0.304h0.151c-0.04,0.343-0.142,0.607-0.303,0.796c-0.161,0.185-0.332,0.318-0.514,0.397
		c-0.211,0.102-0.444,0.159-0.695,0.17c0.08,0.078,0.157,0.18,0.227,0.302c0.051,0.11,0.101,0.243,0.152,0.398
		c0.051,0.159,0.074,0.353,0.074,0.584c0,0.342-0.074,0.675-0.228,0.987c-0.151,0.32-0.363,0.603-0.635,0.85
		s-0.593,0.444-0.961,0.589c-0.368,0.147-0.768,0.22-1.203,0.22c-0.535,0-1.017-0.078-1.445-0.241
		c-0.429-0.161-0.794-0.381-1.097-0.659c-0.303-0.276-0.535-0.604-0.696-0.981c-0.162-0.379-0.242-0.785-0.242-1.218
		c0-0.343,0.04-0.65,0.12-0.924c0.081-0.271,0.187-0.513,0.318-0.721c0.131-0.206,0.28-0.384,0.447-0.533
		c0.166-0.154,0.335-0.278,0.507-0.38c0.402-0.241,0.873-0.397,1.407-0.469c-0.455-0.072-0.857-0.201-1.21-0.393
		c-0.151-0.082-0.301-0.181-0.447-0.304c-0.147-0.119-0.274-0.263-0.388-0.422c-0.11-0.165-0.202-0.353-0.271-0.568
		c-0.07-0.219-0.105-0.464-0.105-0.735c0-0.362,0.064-0.695,0.197-0.998c0.13-0.303,0.317-0.565,0.559-0.784
		c0.242-0.223,0.542-0.396,0.901-0.523c0.357-0.128,0.764-0.188,1.217-0.188c0.434,0,0.819,0.056,1.157,0.174
		c0.338,0.116,0.624,0.271,0.855,0.463c0.232,0.191,0.408,0.415,0.531,0.674c0.121,0.257,0.181,0.526,0.181,0.807
		c0,0.114-0.007,0.213-0.022,0.304c-0.016,0.092-0.033,0.163-0.053,0.212c-0.031,0.071-0.056,0.126-0.075,0.167l-1.286-0.304
		l0.075-0.227c0.02-0.071,0.038-0.146,0.053-0.219c0.015-0.077,0.022-0.155,0.022-0.234c0-0.534-0.125-0.935-0.376-1.194
		c-0.251-0.264-0.605-0.394-1.059-0.394c-0.212,0-0.415,0.047-0.605,0.144c-0.192,0.096-0.361,0.235-0.509,0.426
		c-0.145,0.184-0.262,0.424-0.346,0.711c-0.087,0.286-0.129,0.615-0.129,0.987c0,0.799,0.164,1.375,0.492,1.735
		c0.326,0.354,0.794,0.533,1.399,0.533h0.303v0.301h-0.303c-0.646,0-1.159,0.225-1.543,0.676c-0.384,0.446-0.575,1.182-0.575,2.2
		c0,0.988,0.193,1.701,0.582,2.142C96.867,55.783,97.402,56.002,98.088,56.002z"/>
	<path fill="#fff" d="M111.026,46.774c0,0.172-0.029,0.325-0.084,0.461c-0.055,0.137-0.118,0.255-0.188,0.354
		c-0.082,0.114-0.166,0.22-0.257,0.322l-1.135-0.456c0.09-0.1,0.177-0.206,0.257-0.319c0.069-0.098,0.132-0.218,0.188-0.354
		c0.055-0.136,0.082-0.289,0.082-0.461c0-0.262-0.067-0.467-0.204-0.611c-0.135-0.146-0.321-0.222-0.552-0.222
		c-0.111,0-0.217,0.026-0.318,0.083c-0.1,0.055-0.189,0.149-0.265,0.288c-0.075,0.135-0.135,0.321-0.182,0.55
		c-0.046,0.232-0.068,0.532-0.068,0.893v1.815h2.118v0.303H108.3v6.279l0.908,0.229v0.153h-3.026v-0.152l0.908-0.228v-6.279h-0.908
		v-0.303h0.908v-1.815c0-0.605,0.189-1.095,0.568-1.475c0.379-0.379,0.87-0.566,1.475-0.566c0.283,0,0.541,0.042,0.773,0.127
		c0.23,0.086,0.431,0.199,0.598,0.341c0.166,0.14,0.295,0.302,0.386,0.482C110.979,46.397,111.026,46.584,111.026,46.774z"/>
	<path fill="#fff" d="M113.974,49.118c-0.303,0-0.554,0.104-0.756,0.312c-0.202,0.205-0.303,0.481-0.303,0.823c0,0.081,0.002,0.152,0.008,0.213
		c0.004,0.062,0.012,0.117,0.023,0.168c0.011,0.05,0.025,0.099,0.046,0.151l-1.211,0.303c-0.021-0.031-0.035-0.073-0.046-0.123
		c-0.01-0.049-0.019-0.105-0.023-0.163c-0.005-0.062-0.007-0.144-0.007-0.246c0-0.209,0.051-0.416,0.151-0.612
		c0.1-0.195,0.25-0.371,0.447-0.529c0.197-0.156,0.433-0.283,0.71-0.377c0.277-0.096,0.598-0.145,0.96-0.145
		c0.727,0,1.299,0.209,1.718,0.622c0.418,0.415,0.628,0.964,0.628,1.646V55.7l0.907,0.229v0.151h-2.117v-0.909
		c-0.111,0.211-0.252,0.403-0.424,0.575c-0.142,0.142-0.32,0.271-0.538,0.387c-0.216,0.114-0.477,0.173-0.779,0.173
		c-0.726,0-1.273-0.17-1.641-0.514c-0.368-0.342-0.552-0.802-0.552-1.377c0-0.282,0.078-0.565,0.235-0.848
		c0.156-0.283,0.394-0.534,0.71-0.757c0.318-0.22,0.724-0.401,1.218-0.535c0.493-0.136,1.083-0.205,1.769-0.205v-0.909
		c0-0.756-0.113-1.284-0.34-1.586C114.542,49.271,114.277,49.118,113.974,49.118z M115.11,52.373c-0.877,0-1.527,0.193-1.945,0.582
		c-0.418,0.387-0.627,0.926-0.627,1.61c0,0.455,0.112,0.808,0.333,1.061c0.222,0.25,0.464,0.376,0.728,0.376
		c0.241,0,0.456-0.071,0.642-0.212s0.345-0.297,0.477-0.469c0.151-0.191,0.282-0.419,0.394-0.68V52.373z"/>
	<path fill="#fff" d="M121.466,48.893c0.362,0,0.71,0.082,1.043,0.247c0.333,0.168,0.631,0.411,0.892,0.729c0.263,0.315,0.472,0.706,0.628,1.164
		c0.155,0.459,0.235,0.982,0.235,1.565c0,0.586-0.078,1.109-0.235,1.567c-0.156,0.458-0.358,0.848-0.604,1.163
		c-0.248,0.32-0.53,0.561-0.846,0.729c-0.319,0.166-0.64,0.247-0.961,0.247c-0.303,0-0.566-0.057-0.787-0.173
		c-0.224-0.116-0.404-0.245-0.544-0.387c-0.172-0.172-0.308-0.364-0.408-0.575v0.909h-2.118v-0.152l0.907-0.228v-9.834l-0.907-0.229
		v-0.148h2.118v4.161c0.09-0.142,0.211-0.269,0.362-0.379c0.132-0.091,0.296-0.177,0.492-0.257
		C120.927,48.934,121.172,48.893,121.466,48.893z M121.239,49.195c-0.233,0-0.435,0.048-0.605,0.144
		c-0.173,0.095-0.312,0.198-0.424,0.312c-0.13,0.129-0.243,0.281-0.333,0.451v4.54c0.111,0.263,0.242,0.488,0.393,0.68
		c0.13,0.172,0.287,0.328,0.469,0.469c0.181,0.141,0.397,0.212,0.651,0.212c0.172,0,0.345-0.054,0.521-0.168
		c0.177-0.109,0.338-0.298,0.484-0.565c0.148-0.268,0.269-0.617,0.365-1.052c0.095-0.434,0.143-0.973,0.143-1.619
		c0-0.646-0.048-1.185-0.143-1.619c-0.097-0.431-0.224-0.781-0.378-1.043c-0.156-0.263-0.333-0.452-0.53-0.567
		C121.654,49.252,121.45,49.195,121.239,49.195z"/>
	<path fill="#fff" d="M131.147,49.497V55.7l0.908,0.228v0.152h-2.117v-0.909c-0.114,0.211-0.253,0.403-0.425,0.575
		c-0.142,0.142-0.321,0.271-0.538,0.387c-0.217,0.116-0.478,0.173-0.778,0.173c-0.303,0-0.582-0.055-0.842-0.166
		c-0.256-0.112-0.48-0.266-0.671-0.461c-0.192-0.197-0.343-0.435-0.446-0.713c-0.106-0.276-0.16-0.586-0.16-0.929v-4.54
		l-0.907-0.228v-0.151h2.951v0.152l-0.834,0.227v4.54c0,0.716,0.114,1.224,0.342,1.521c0.227,0.297,0.49,0.444,0.793,0.444
		c0.241,0,0.457-0.069,0.644-0.21c0.186-0.141,0.345-0.297,0.477-0.47c0.15-0.191,0.281-0.418,0.396-0.681v-5.145l-0.836-0.227
		v-0.152h2.951v0.152L131.147,49.497z"/>
	<path fill="#fff" d="M133.948,55.7v-9.834l-0.907-0.228v-0.149h2.116V55.7l0.909,0.229v0.151h-3.025v-0.152L133.948,55.7z"/>
	<path fill="#fff" d="M140,48.893c0.373,0,0.733,0.082,1.08,0.247c0.349,0.168,0.657,0.411,0.925,0.729c0.27,0.315,0.479,0.706,0.637,1.164
		c0.155,0.459,0.233,0.982,0.233,1.565c0,0.586-0.078,1.109-0.233,1.567c-0.159,0.458-0.369,0.848-0.637,1.163
		c-0.268,0.32-0.576,0.561-0.925,0.729c-0.347,0.166-0.707,0.247-1.08,0.247c-0.384,0-0.747-0.081-1.09-0.247
		c-0.342-0.169-0.649-0.409-0.915-0.729c-0.268-0.315-0.48-0.705-0.636-1.163c-0.158-0.458-0.23-0.981-0.23-1.567
		c0-0.583,0.072-1.106,0.23-1.565c0.158-0.458,0.368-0.849,0.636-1.164c0.266-0.318,0.573-0.562,0.915-0.729
		C139.253,48.975,139.616,48.893,140,48.893z M140,49.118c-0.173,0-0.344,0.06-0.523,0.176c-0.178,0.116-0.34,0.309-0.483,0.576
		c-0.146,0.267-0.268,0.622-0.364,1.066c-0.096,0.443-0.144,0.998-0.144,1.663c0,0.666,0.048,1.222,0.144,1.663
		c0.097,0.447,0.219,0.8,0.364,1.067c0.144,0.269,0.309,0.46,0.483,0.576c0.177,0.116,0.351,0.176,0.523,0.176
		c0.17,0,0.344-0.06,0.521-0.176c0.177-0.116,0.339-0.308,0.482-0.576c0.147-0.268,0.269-0.62,0.363-1.067
		c0.097-0.441,0.145-0.997,0.145-1.663c0-0.665-0.048-1.22-0.145-1.663c-0.095-0.444-0.216-0.8-0.363-1.066
		c-0.144-0.268-0.309-0.46-0.482-0.576C140.344,49.178,140.17,49.118,140,49.118z"/>
	<path fill="#fff" d="M149.759,49.497V55.7l0.905,0.228v0.152h-2.118v-0.909c-0.11,0.211-0.25,0.403-0.423,0.575
		c-0.143,0.142-0.321,0.271-0.539,0.387c-0.215,0.116-0.477,0.173-0.778,0.173c-0.303,0-0.58-0.055-0.839-0.166
		c-0.257-0.112-0.481-0.266-0.674-0.461c-0.19-0.197-0.34-0.435-0.444-0.713c-0.108-0.276-0.162-0.586-0.162-0.929v-4.54
		l-0.907-0.228v-0.151h2.951v0.152l-0.832,0.227v4.54c0,0.716,0.114,1.224,0.339,1.521c0.229,0.297,0.493,0.444,0.796,0.444
		c0.241,0,0.456-0.069,0.641-0.21c0.187-0.141,0.347-0.297,0.478-0.47c0.15-0.191,0.282-0.418,0.395-0.681v-5.145l-0.834-0.227
		v-0.152h2.95v0.152L149.759,49.497z"/>
	<path fill="#fff" d="M154.446,56.306c-0.321,0-0.6-0.036-0.831-0.114c-0.233-0.075-0.418-0.164-0.562-0.264
		c-0.173-0.11-0.312-0.237-0.423-0.379c-0.041,0.151-0.127,0.295-0.251,0.425c-0.124,0.131-0.244,0.217-0.354,0.259h-0.229
		c0.012-0.132,0.022-0.27,0.033-0.409c0.008-0.123,0.021-0.25,0.028-0.385c0.012-0.137,0.016-0.274,0.016-0.417
		c0-0.152-0.004-0.304-0.016-0.455c-0.01-0.15-0.022-0.287-0.028-0.409c-0.011-0.139-0.021-0.278-0.033-0.423h0.229
		c0.19,0.725,0.483,1.286,0.875,1.681c0.395,0.393,0.859,0.587,1.396,0.587c0.423,0,0.768-0.129,1.036-0.392
		c0.267-0.262,0.4-0.585,0.4-0.969c0-0.272-0.092-0.509-0.28-0.712c-0.187-0.2-0.421-0.385-0.704-0.55
		c-0.28-0.169-0.584-0.329-0.907-0.493c-0.322-0.161-0.627-0.34-0.905-0.545c-0.283-0.2-0.518-0.438-0.705-0.709
		c-0.187-0.274-0.281-0.604-0.281-0.999c0-0.224,0.053-0.438,0.15-0.65c0.102-0.213,0.242-0.398,0.419-0.562
		c0.176-0.158,0.389-0.29,0.642-0.383c0.252-0.098,0.529-0.145,0.834-0.145c0.262,0,0.493,0.041,0.688,0.121
		c0.197,0.079,0.366,0.166,0.509,0.257c0.15,0.113,0.278,0.238,0.39,0.38c0.04-0.152,0.125-0.293,0.251-0.427
		c0.126-0.131,0.244-0.216,0.356-0.255h0.227c-0.022,0.131-0.034,0.266-0.046,0.407c-0.01,0.122-0.017,0.251-0.023,0.393
		c-0.004,0.141-0.006,0.278-0.006,0.409c0,0.151,0.002,0.306,0.006,0.461c0.007,0.157,0.014,0.296,0.023,0.416
		c0.012,0.143,0.025,0.277,0.046,0.409h-0.227c-0.191-0.726-0.475-1.285-0.847-1.679c-0.375-0.396-0.776-0.589-1.196-0.589
		c-0.343,0-0.632,0.112-0.864,0.339c-0.23,0.229-0.345,0.492-0.345,0.794c0,0.252,0.097,0.471,0.286,0.649
		c0.19,0.181,0.427,0.352,0.711,0.508c0.282,0.156,0.594,0.314,0.931,0.478c0.339,0.161,0.647,0.348,0.932,0.561
		c0.282,0.21,0.522,0.464,0.712,0.756c0.19,0.293,0.285,0.646,0.285,1.06c0,0.242-0.057,0.48-0.174,0.718
		c-0.115,0.238-0.275,0.449-0.483,0.636c-0.207,0.185-0.456,0.335-0.742,0.445C155.105,56.251,154.791,56.306,154.446,56.306z"/>
	<path fill="#fff" d="M164.509,48.893c0.373,0,0.734,0.082,1.082,0.247c0.348,0.168,0.656,0.411,0.925,0.729
		c0.268,0.315,0.479,0.706,0.633,1.164c0.159,0.459,0.235,0.982,0.235,1.565c0,0.586-0.076,1.109-0.235,1.567
		c-0.155,0.458-0.365,0.848-0.633,1.163c-0.269,0.32-0.577,0.561-0.925,0.729c-0.348,0.166-0.709,0.247-1.082,0.247
		c-0.382,0-0.745-0.081-1.089-0.247c-0.343-0.169-0.648-0.409-0.914-0.729c-0.269-0.315-0.479-0.705-0.638-1.163
		c-0.156-0.458-0.232-0.981-0.232-1.567c0-0.583,0.076-1.106,0.232-1.565c0.158-0.458,0.369-0.849,0.638-1.164
		c0.266-0.318,0.571-0.562,0.914-0.729C163.764,48.975,164.125,48.893,164.509,48.893z M164.509,49.118
		c-0.172,0-0.344,0.06-0.522,0.176c-0.176,0.116-0.339,0.309-0.482,0.576c-0.147,0.267-0.268,0.622-0.365,1.066
		c-0.096,0.443-0.144,0.998-0.144,1.663c0,0.666,0.048,1.222,0.144,1.663c0.098,0.447,0.218,0.8,0.365,1.067
		c0.144,0.269,0.307,0.46,0.482,0.576s0.351,0.176,0.522,0.176c0.171,0,0.346-0.06,0.521-0.176c0.178-0.116,0.338-0.308,0.485-0.576
		c0.146-0.268,0.266-0.62,0.362-1.067c0.095-0.441,0.145-0.997,0.145-1.663c0-0.665-0.05-1.22-0.145-1.663
		c-0.097-0.444-0.216-0.8-0.362-1.066c-0.147-0.268-0.31-0.46-0.485-0.576S164.68,49.118,164.509,49.118z"/>
	<path fill="#fff" d="M169.504,55.7v-6.203l-0.91-0.227v-0.152h2.12v0.91c0.099-0.204,0.233-0.39,0.409-0.561
		c0.138-0.142,0.321-0.272,0.541-0.393c0.224-0.124,0.485-0.183,0.788-0.183c0.302,0,0.581,0.057,0.838,0.169
		c0.257,0.11,0.481,0.263,0.673,0.459c0.191,0.198,0.341,0.434,0.447,0.711c0.105,0.278,0.16,0.588,0.16,0.933v4.538l0.905,0.228
		v0.15h-2.95v-0.152l0.834-0.228v-4.539c0-0.716-0.116-1.224-0.341-1.521c-0.228-0.295-0.491-0.445-0.794-0.445
		c-0.25,0-0.47,0.071-0.649,0.211c-0.182,0.142-0.336,0.297-0.47,0.469c-0.15,0.203-0.281,0.429-0.395,0.681V55.7l0.835,0.228v0.152
		h-2.952v-0.152L169.504,55.7z"/>
	<path fill="#fff" d="M181.153,51.388v0.606h-4.844v-0.606H181.153z"/>
	<path fill="#fff" d="M187.81,55.7l0.906,0.229v0.151H186.6v-0.909c-0.113,0.211-0.252,0.403-0.426,0.575c-0.143,0.142-0.32,0.271-0.539,0.387
		c-0.214,0.116-0.474,0.173-0.778,0.173c-0.322,0-0.642-0.081-0.961-0.247c-0.317-0.169-0.6-0.409-0.846-0.729
		c-0.248-0.315-0.448-0.705-0.605-1.163c-0.155-0.458-0.231-0.981-0.231-1.567c0-0.583,0.076-1.106,0.231-1.565
		c0.157-0.458,0.367-0.849,0.63-1.164c0.261-0.318,0.559-0.562,0.892-0.729c0.33-0.165,0.682-0.247,1.044-0.247
		c0.283,0,0.522,0.041,0.724,0.121c0.204,0.078,0.371,0.166,0.501,0.257c0.152,0.111,0.272,0.235,0.365,0.38v-3.784l-0.908-0.229
		v-0.148h2.118V55.7z M185.236,49.195c-0.212,0-0.417,0.057-0.611,0.174c-0.198,0.115-0.374,0.306-0.533,0.567
		c-0.153,0.264-0.283,0.611-0.377,1.043c-0.096,0.434-0.142,0.974-0.142,1.619c0,0.646,0.046,1.185,0.142,1.619
		c0.094,0.434,0.218,0.783,0.364,1.052c0.145,0.268,0.307,0.456,0.484,0.565c0.174,0.115,0.351,0.167,0.522,0.167
		c0.241,0,0.455-0.069,0.642-0.21s0.346-0.297,0.478-0.47c0.151-0.191,0.281-0.418,0.395-0.681v-4.54
		c-0.101-0.169-0.22-0.321-0.35-0.451c-0.111-0.113-0.248-0.215-0.415-0.312C185.67,49.245,185.467,49.195,185.236,49.195z"/>
	<path fill="#fff" d="M191.214,52.599c0,0.646,0.045,1.185,0.142,1.619c0.096,0.434,0.224,0.783,0.379,1.052c0.156,0.268,0.33,0.456,0.53,0.565
		c0.195,0.115,0.4,0.167,0.612,0.167c0.263,0,0.509-0.048,0.74-0.149c0.231-0.1,0.438-0.235,0.622-0.41
		c0.181-0.17,0.33-0.376,0.442-0.619c0.119-0.239,0.195-0.504,0.235-0.786h0.228c-0.04,0.322-0.127,0.624-0.265,0.9
		c-0.134,0.277-0.309,0.518-0.523,0.718c-0.21,0.201-0.456,0.362-0.732,0.479c-0.276,0.114-0.577,0.173-0.898,0.173
		c-0.383,0-0.748-0.082-1.09-0.249c-0.341-0.166-0.646-0.409-0.915-0.729c-0.27-0.315-0.479-0.705-0.634-1.163
		c-0.157-0.458-0.235-0.98-0.235-1.567c0-0.604,0.076-1.138,0.227-1.603c0.153-0.464,0.352-0.85,0.599-1.157
		c0.248-0.309,0.535-0.543,0.863-0.705c0.327-0.16,0.673-0.24,1.036-0.24c0.359,0,0.708,0.08,1.033,0.24
		c0.329,0.162,0.616,0.396,0.862,0.705c0.249,0.308,0.447,0.693,0.602,1.157c0.15,0.465,0.225,0.998,0.225,1.603L191.214,52.599
		L191.214,52.599z M192.572,49.118c-0.151,0-0.301,0.051-0.453,0.146c-0.15,0.095-0.293,0.263-0.425,0.505
		c-0.129,0.24-0.238,0.567-0.326,0.976c-0.086,0.409-0.137,0.929-0.156,1.551h2.723c-0.02-0.626-0.075-1.142-0.159-1.551
		c-0.086-0.408-0.195-0.733-0.327-0.976s-0.273-0.41-0.426-0.505C192.873,49.169,192.726,49.118,192.572,49.118z"/>
	<path fill="#fff" d="M197.34,55.7v-6.203l-0.908-0.227v-0.152h2.118v0.91c0.102-0.204,0.237-0.39,0.411-0.561
		c0.139-0.142,0.32-0.272,0.541-0.393c0.225-0.124,0.484-0.183,0.787-0.183c0.383,0,0.701,0.072,0.944,0.213
		c0.249,0.142,0.448,0.296,0.599,0.47c0.182,0.201,0.324,0.428,0.425,0.678c0.131-0.25,0.287-0.479,0.468-0.678
		c0.162-0.174,0.358-0.328,0.592-0.47c0.23-0.141,0.507-0.213,0.834-0.213c0.302,0,0.58,0.057,0.836,0.169
		c0.257,0.11,0.481,0.263,0.675,0.459c0.192,0.198,0.341,0.434,0.446,0.711c0.104,0.278,0.159,0.588,0.159,0.933v4.538l0.908,0.228
		v0.15h-2.953v-0.152l0.834-0.228v-4.539c0-0.716-0.113-1.224-0.339-1.521c-0.227-0.295-0.493-0.445-0.794-0.445
		c-0.252,0-0.471,0.071-0.65,0.211c-0.185,0.142-0.339,0.297-0.472,0.469c-0.149,0.203-0.281,0.429-0.391,0.681V55.7l0.832,0.228
		v0.152h-2.874v-0.152L201.2,55.7v-4.539c0-0.716-0.114-1.224-0.34-1.521c-0.229-0.295-0.49-0.445-0.793-0.445
		c-0.254,0-0.474,0.071-0.652,0.211c-0.182,0.142-0.336,0.297-0.471,0.469c-0.148,0.203-0.279,0.429-0.393,0.681V55.7l0.836,0.228
		v0.152h-2.954v-0.152L197.34,55.7z"/>
	<path fill="#fff" d="M210.958,49.118c-0.305,0-0.556,0.104-0.757,0.312c-0.203,0.205-0.303,0.481-0.303,0.823c0,0.081,0.004,0.152,0.008,0.213
		c0.004,0.062,0.013,0.117,0.023,0.168c0.011,0.05,0.025,0.099,0.043,0.151l-1.207,0.303c-0.022-0.031-0.039-0.073-0.047-0.123
		c-0.012-0.049-0.018-0.105-0.021-0.163c-0.008-0.062-0.01-0.144-0.01-0.246c0-0.209,0.049-0.416,0.152-0.612
		c0.1-0.195,0.249-0.371,0.446-0.529c0.197-0.156,0.432-0.283,0.708-0.377c0.28-0.096,0.601-0.145,0.964-0.145
		c0.728,0,1.299,0.209,1.716,0.622c0.418,0.415,0.63,0.964,0.63,1.646V55.7l0.907,0.229v0.151h-2.119v-0.909
		c-0.111,0.211-0.252,0.403-0.422,0.575c-0.144,0.142-0.323,0.271-0.539,0.387c-0.218,0.116-0.478,0.173-0.776,0.173
		c-0.729,0-1.276-0.17-1.646-0.514c-0.367-0.342-0.55-0.802-0.55-1.377c0-0.282,0.077-0.565,0.233-0.848
		c0.155-0.283,0.392-0.534,0.711-0.757c0.318-0.22,0.723-0.401,1.218-0.535c0.495-0.136,1.085-0.205,1.771-0.205v-0.909
		c0-0.756-0.113-1.284-0.338-1.586C211.524,49.271,211.261,49.118,210.958,49.118z M212.092,52.373c-0.88,0-1.528,0.193-1.945,0.582
		c-0.419,0.387-0.629,0.926-0.629,1.61c0,0.455,0.112,0.808,0.334,1.061c0.222,0.25,0.464,0.376,0.727,0.376
		c0.242,0,0.456-0.071,0.642-0.212c0.187-0.141,0.346-0.297,0.478-0.469c0.153-0.191,0.281-0.419,0.395-0.68V52.373z"/>
	<path fill="#fff" d="M216.025,55.7v-6.203l-0.909-0.227v-0.152h2.12v0.91c0.101-0.204,0.233-0.39,0.406-0.561
		c0.143-0.142,0.324-0.272,0.544-0.393c0.222-0.124,0.485-0.183,0.788-0.183c0.301,0,0.582,0.057,0.838,0.169
		c0.258,0.11,0.481,0.263,0.674,0.459c0.194,0.198,0.342,0.434,0.446,0.711c0.105,0.278,0.161,0.588,0.161,0.933v4.538l0.904,0.228
		v0.15h-2.949v-0.152l0.831-0.228v-4.539c0-0.716-0.111-1.224-0.338-1.521c-0.229-0.295-0.493-0.445-0.795-0.445
		c-0.25,0-0.47,0.071-0.649,0.211c-0.183,0.142-0.338,0.297-0.47,0.469c-0.151,0.203-0.283,0.429-0.395,0.681V55.7l0.835,0.228
		v0.152h-2.954v-0.152L216.025,55.7z"/>
	<path fill="#fff" d="M228.581,55.7l0.909,0.229v0.151h-2.118v-0.909c-0.111,0.211-0.253,0.403-0.426,0.575c-0.14,0.142-0.319,0.271-0.536,0.387
		c-0.217,0.116-0.477,0.173-0.779,0.173c-0.324,0-0.644-0.081-0.96-0.247c-0.319-0.169-0.601-0.409-0.849-0.729
		c-0.244-0.315-0.446-0.705-0.606-1.163c-0.155-0.458-0.231-0.981-0.231-1.567c0-0.583,0.076-1.106,0.231-1.565
		c0.16-0.458,0.369-0.849,0.63-1.164c0.262-0.318,0.562-0.562,0.895-0.729c0.33-0.165,0.679-0.247,1.041-0.247
		c0.282,0,0.526,0.041,0.727,0.121c0.204,0.078,0.371,0.166,0.499,0.257c0.155,0.111,0.275,0.235,0.365,0.38v-3.784l-0.908-0.229
		v-0.148h2.117V55.7z M226.012,49.195c-0.213,0-0.419,0.057-0.615,0.174c-0.197,0.115-0.373,0.306-0.53,0.567
		c-0.157,0.264-0.279,0.611-0.376,1.043c-0.099,0.434-0.145,0.974-0.145,1.619c0,0.646,0.046,1.185,0.145,1.619
		c0.097,0.434,0.217,0.783,0.361,1.052c0.147,0.268,0.308,0.456,0.484,0.565c0.177,0.115,0.352,0.167,0.522,0.167
		c0.243,0,0.456-0.069,0.642-0.21c0.188-0.141,0.346-0.297,0.479-0.47c0.149-0.191,0.281-0.418,0.393-0.681v-4.54
		c-0.102-0.169-0.218-0.321-0.348-0.451c-0.113-0.113-0.251-0.215-0.418-0.312C226.44,49.245,226.244,49.195,226.012,49.195z"/>
	<path fill="#fff" d="M237.736,48.893c0.361,0,0.713,0.082,1.043,0.247c0.333,0.168,0.632,0.411,0.893,0.729
		c0.262,0.315,0.473,0.706,0.629,1.164c0.156,0.459,0.235,0.982,0.235,1.565c0,0.586-0.079,1.109-0.235,1.567
		s-0.359,0.848-0.605,1.163c-0.249,0.32-0.53,0.561-0.848,0.729c-0.316,0.166-0.639,0.247-0.962,0.247
		c-0.301,0-0.563-0.057-0.785-0.173c-0.223-0.116-0.404-0.245-0.546-0.387c-0.169-0.172-0.306-0.364-0.407-0.575v0.909h-2.118
		v-0.152l0.909-0.228v-9.834l-0.909-0.229v-0.148h2.118v4.161c0.089-0.142,0.212-0.269,0.363-0.379
		c0.13-0.091,0.297-0.177,0.492-0.257C237.197,48.934,237.445,48.893,237.736,48.893z M237.509,49.195
		c-0.232,0-0.435,0.048-0.604,0.144c-0.173,0.095-0.312,0.198-0.425,0.312c-0.13,0.129-0.243,0.281-0.334,0.451v4.54
		c0.112,0.263,0.244,0.488,0.395,0.68c0.13,0.172,0.285,0.328,0.47,0.469c0.182,0.141,0.397,0.212,0.649,0.212
		c0.174,0,0.343-0.054,0.522-0.168c0.178-0.109,0.338-0.298,0.484-0.565c0.147-0.268,0.268-0.617,0.361-1.052
		c0.097-0.434,0.145-0.973,0.145-1.619c0-0.646-0.048-1.185-0.145-1.619c-0.094-0.431-0.222-0.781-0.376-1.043
		c-0.156-0.263-0.331-0.452-0.53-0.567C237.925,49.252,237.722,49.195,237.509,49.195z"/>
	<path fill="#fff" d="M243.258,52.599c0,0.646,0.047,1.185,0.144,1.619c0.096,0.434,0.22,0.783,0.379,1.052c0.154,0.268,0.33,0.456,0.528,0.565
		c0.198,0.115,0.402,0.167,0.614,0.167c0.263,0,0.509-0.048,0.741-0.149c0.23-0.1,0.437-0.235,0.619-0.41
		c0.181-0.17,0.33-0.376,0.447-0.619c0.117-0.239,0.191-0.504,0.232-0.786h0.229c-0.041,0.322-0.129,0.624-0.269,0.9
		c-0.134,0.277-0.309,0.518-0.521,0.718c-0.212,0.201-0.457,0.362-0.732,0.479c-0.277,0.114-0.578,0.173-0.899,0.173
		c-0.384,0-0.746-0.082-1.09-0.249c-0.342-0.166-0.647-0.409-0.915-0.729c-0.268-0.315-0.479-0.705-0.635-1.163
		c-0.156-0.458-0.235-0.98-0.235-1.567c0-0.604,0.075-1.138,0.229-1.603c0.15-0.464,0.349-0.85,0.597-1.157
		c0.249-0.309,0.536-0.543,0.864-0.705c0.326-0.16,0.673-0.24,1.034-0.24c0.36,0,0.71,0.08,1.035,0.24
		c0.329,0.162,0.616,0.396,0.862,0.705c0.249,0.308,0.447,0.693,0.597,1.157c0.155,0.465,0.229,0.998,0.229,1.603L243.258,52.599
		L243.258,52.599z M244.62,49.118c-0.151,0-0.304,0.051-0.456,0.146c-0.15,0.095-0.29,0.263-0.422,0.505
		c-0.131,0.24-0.238,0.567-0.327,0.976c-0.085,0.409-0.138,0.929-0.157,1.551h2.722c-0.021-0.626-0.075-1.142-0.157-1.551
		c-0.088-0.408-0.196-0.733-0.329-0.976c-0.132-0.242-0.273-0.41-0.423-0.505C244.921,49.169,244.771,49.118,244.62,49.118z"/>
	<path fill="#fff" d="M251.354,49.118c-0.302,0-0.557,0.104-0.758,0.312c-0.202,0.205-0.302,0.481-0.302,0.823c0,0.081,0.002,0.152,0.006,0.213
		c0.007,0.062,0.013,0.117,0.025,0.168c0.012,0.05,0.026,0.099,0.045,0.151l-1.21,0.303c-0.021-0.031-0.037-0.073-0.045-0.123
		c-0.012-0.049-0.018-0.105-0.025-0.163c-0.005-0.062-0.007-0.144-0.007-0.246c0-0.209,0.051-0.416,0.154-0.612
		c0.098-0.195,0.247-0.371,0.443-0.529c0.198-0.156,0.432-0.283,0.711-0.377c0.279-0.096,0.599-0.145,0.962-0.145
		c0.729,0,1.299,0.209,1.716,0.622c0.418,0.415,0.628,0.964,0.628,1.646V55.7l0.909,0.229v0.151h-2.118v-0.909
		c-0.11,0.211-0.253,0.403-0.423,0.575c-0.143,0.142-0.323,0.271-0.539,0.387c-0.214,0.116-0.475,0.173-0.777,0.173
		c-0.727,0-1.275-0.17-1.644-0.514c-0.365-0.342-0.552-0.802-0.552-1.377c0-0.282,0.079-0.565,0.234-0.848
		c0.155-0.283,0.392-0.534,0.711-0.757c0.318-0.22,0.725-0.401,1.218-0.535c0.495-0.136,1.086-0.205,1.771-0.205v-0.909
		c0-0.756-0.114-1.284-0.341-1.586C251.921,49.271,251.655,49.118,251.354,49.118z M252.488,52.373c-0.88,0-1.526,0.193-1.946,0.582
		c-0.419,0.387-0.628,0.926-0.628,1.61c0,0.455,0.113,0.808,0.334,1.061c0.222,0.25,0.463,0.376,0.725,0.376
		c0.243,0,0.457-0.071,0.644-0.212s0.343-0.297,0.478-0.469c0.149-0.191,0.28-0.419,0.395-0.68V52.373z"/>
	<path fill="#fff" d="M261.188,49.497V55.7l0.906,0.228v0.152h-2.116v-0.909c-0.115,0.211-0.253,0.403-0.426,0.575
		c-0.143,0.142-0.321,0.271-0.538,0.387c-0.216,0.116-0.478,0.173-0.778,0.173c-0.303,0-0.583-0.055-0.84-0.166
		c-0.257-0.112-0.48-0.266-0.673-0.461c-0.19-0.197-0.342-0.435-0.447-0.713c-0.104-0.276-0.157-0.586-0.157-0.929v-4.54
		l-0.909-0.228v-0.151h2.951v0.152l-0.831,0.227v4.54c0,0.716,0.111,1.224,0.337,1.521c0.229,0.297,0.492,0.444,0.797,0.444
		c0.24,0,0.455-0.069,0.641-0.21c0.188-0.141,0.346-0.297,0.479-0.47c0.15-0.191,0.28-0.418,0.394-0.681v-5.145l-0.834-0.227v-0.152
		h2.95v0.152L261.188,49.497z"/>
	<path fill="#fff" d="M267.012,49.118v0.303h-1.74v4.827c0,0.614,0.109,1.062,0.332,1.338c0.221,0.279,0.463,0.416,0.726,0.416
		c0.343,0,0.632-0.128,0.87-0.384c0.236-0.258,0.378-0.634,0.417-1.127h0.227c-0.038,0.574-0.214,1.021-0.521,1.337
		c-0.308,0.32-0.689,0.478-1.144,0.478c-0.644,0-1.158-0.189-1.543-0.569c-0.383-0.376-0.576-0.869-0.576-1.476V49.42h-1.283v-0.303
		h1.283v-1.74l1.212-0.832v2.571h1.74V49.118z"/>
	<path fill="#fff" d="M270.944,57.366c-0.161,0.473-0.316,0.869-0.471,1.185c-0.148,0.316-0.309,0.575-0.475,0.772
		c-0.168,0.197-0.339,0.336-0.514,0.417c-0.179,0.08-0.372,0.121-0.586,0.121c-0.057,0-0.113-0.002-0.165-0.006
		c-0.051-0.007-0.101-0.015-0.151-0.023c-0.05-0.012-0.097-0.028-0.135-0.047l-0.229-1.135c0.042,0.02,0.086,0.033,0.136,0.046
		c0.053,0.009,0.101,0.017,0.151,0.023c0.053,0.004,0.107,0.006,0.169,0.006c0.604,0,1.044-0.113,1.323-0.339
		c0.278-0.229,0.491-0.567,0.641-1.021l0.425-1.286l-2.616-6.583l-0.909-0.228v-0.151h3.027v0.152l-0.834,0.227l1.924,4.826
		l1.557-4.673l-0.982-0.379v-0.153h2.27v0.152l-0.982,0.38L270.944,57.366z"/>
</g>
</svg>
